# Blender v3.6.14 OBJ File: ''
# www.blender.org
mtllib sochlenenie.mtl
o EXT
v -0.872425 2.367992 0.497424
v 0.000000 2.367992 0.497424
v 0.000000 2.367992 -0.497220
v -0.872425 2.367992 -0.497220
v -1.042425 2.322441 -0.497220
v -1.042425 2.322441 0.497424
v -0.872425 2.367992 0.497424
v -0.872425 2.367992 0.497424
v -0.872425 2.367992 -0.497220
v -1.166874 2.197992 -0.497220
v -1.166874 2.197992 0.497424
v -1.212425 2.027992 -0.497220
v -1.212425 2.027992 0.497424
v -1.212425 -0.184868 -0.497220
v -1.212425 -0.184867 0.497425
v -1.212425 2.027992 0.497424
v -1.212425 2.027992 -0.497220
v -1.166874 -0.354868 -0.497220
v -1.166874 -0.354867 0.497425
v -1.212425 -0.184867 0.497425
v -1.212425 -0.184868 -0.497220
v -1.042425 -0.479316 -0.497220
v -1.042425 -0.479315 0.497425
v -0.872425 -0.524868 -0.497220
v -0.872425 -0.524867 0.497425
v -0.872425 -0.524867 0.497425
v -0.872425 -0.524868 -0.497220
v 0.000000 -0.524868 -0.497220
v 0.000000 -0.524867 0.497425
v 0.872425 2.367992 0.497424
v 0.872425 2.367992 -0.497220
v 1.042425 2.322441 -0.497220
v 0.872425 2.367992 -0.497220
v 0.872425 2.367992 0.497424
v 0.872425 2.367992 0.497424
v 1.042425 2.322441 0.497424
v 1.166874 2.197992 -0.497220
v 1.166874 2.197992 0.497424
v 1.212425 2.027992 -0.497220
v 1.212425 2.027992 0.497424
v 1.212425 -0.184868 -0.497220
v 1.212425 2.027992 -0.497220
v 1.212425 2.027992 0.497424
v 1.212425 -0.184867 0.497425
v 1.166874 -0.354868 -0.497220
v 1.212425 -0.184868 -0.497220
v 1.212425 -0.184867 0.497425
v 1.166874 -0.354867 0.497425
v 1.042425 -0.479316 -0.497220
v 1.042425 -0.479315 0.497425
v 0.872425 -0.524868 -0.497220
v 0.872425 -0.524867 0.497425
v 0.872425 -0.524867 0.497425
v 0.872425 -0.524868 -0.497220
vt 1.266313 -0.291054
vt 1.266313 0.068731
vt -0.892825 0.068731
vt -0.892825 -0.291054
vt -0.845758 -0.329950
vt 1.016571 -0.329950
vt 1.016571 -0.259843
vt 1.016571 -0.259843
vt -0.845758 -0.259843
vt -0.845758 -0.381272
vt 1.016571 -0.381272
vt -0.845758 -0.400058
vt 1.016571 -0.400058
vt 1.099869 1.000000
vt -0.899984 1.000000
vt -0.899984 0.000000
vt 1.099869 0.000000
vt -0.899769 1.184462
vt 1.236890 1.184463
vt 1.236890 1.203248
vt -0.899769 1.203248
vt -0.899769 1.133140
vt 1.236890 1.133140
vt -0.899769 1.063033
vt 1.236890 1.063033
vt 0.859785 0.235307
vt 0.859785 0.764693
vt 0.500000 0.764693
vt 0.500000 0.235307
vt 1.266313 -0.291054
vt -0.892825 -0.291054
vt -0.845758 -0.329950
vt -0.845758 -0.259843
vt 1.016571 -0.259843
vt 1.016571 -0.259843
vt 1.016571 -0.329950
vt -0.845758 -0.381272
vt 1.016571 -0.381272
vt -0.845758 -0.400058
vt 1.016571 -0.400058
vt 1.099869 1.000000
vt 1.099869 0.000000
vt -0.899984 0.000000
vt -0.899984 1.000000
vt -0.899769 1.184462
vt -0.899769 1.203248
vt 1.236890 1.203248
vt 1.236890 1.184463
vt -0.899769 1.133140
vt 1.236890 1.133140
vt -0.899769 1.063033
vt 1.236890 1.063033
vt 0.859785 0.235307
vt 0.859785 0.764693
vn 0.0000 1.0000 0.0000
vn -0.2588 0.9659 0.0000
vn -0.7071 0.7071 0.0000
vn -0.9659 0.2588 0.0000
vn -1.0000 0.0000 0.0000
vn -0.9659 -0.2588 0.0000
vn -0.7071 -0.7071 0.0000
vn -0.2588 -0.9659 0.0000
vn 0.0000 -1.0000 0.0000
vn 0.2588 0.9659 0.0000
vn 0.7071 0.7071 0.0000
vn 0.9659 0.2588 0.0000
vn 1.0000 0.0000 0.0000
vn 0.9659 -0.2588 0.0000
vn 0.7071 -0.7071 0.0000
vn 0.2588 -0.9659 0.0000
usemtl sochl1.m.onetex
s 1
f 1/1/1 2/2/1 3/3/1
f 3/3/1 4/4/1 1/1/1
f 5/5/2 6/6/2 7/7/2
f 8/8/2 9/9/2 5/5/2
f 10/10/3 11/11/3 6/6/3
f 6/6/3 5/5/3 10/10/3
f 12/12/4 13/13/4 11/11/4
f 11/11/4 10/10/4 12/12/4
f 14/14/5 15/15/5 16/16/5
f 16/16/5 17/17/5 14/14/5
f 18/18/6 19/19/6 20/20/6
f 20/20/6 21/21/6 18/18/6
f 22/22/7 23/23/7 19/19/7
f 19/19/7 18/18/7 22/22/7
f 24/24/8 25/25/8 23/23/8
f 23/23/8 22/22/8 24/24/8
f 26/26/9 27/27/9 28/28/9
f 28/28/9 29/29/9 26/26/9
f 30/30/1 31/31/1 3/3/1
f 3/3/1 2/2/1 30/30/1
f 32/32/10 33/33/10 34/34/10
f 35/35/10 36/36/10 32/32/10
f 37/37/11 32/32/11 36/36/11
f 36/36/11 38/38/11 37/37/11
f 39/39/12 37/37/12 38/38/12
f 38/38/12 40/40/12 39/39/12
f 41/41/13 42/42/13 43/43/13
f 43/43/13 44/44/13 41/41/13
f 45/45/14 46/46/14 47/47/14
f 47/47/14 48/48/14 45/45/14
f 49/49/15 45/45/15 48/48/15
f 48/48/15 50/50/15 49/49/15
f 51/51/16 49/49/16 50/50/16
f 50/50/16 52/52/16 51/51/16
f 53/53/9 29/29/9 28/28/9
f 28/28/9 54/54/9 53/53/9
o INT
v 0.660000 -0.267440 0.493722
v 0.660000 -0.267441 -0.493722
v 1.259000 -0.267441 -0.493722
v 1.259000 -0.267440 0.493722
v -0.660000 -0.267440 0.493722
v -1.241000 -0.267440 0.493722
v -1.241000 -0.267441 -0.493722
v -0.660000 -0.267441 -0.493722
v -1.048000 2.027622 0.493722
v -1.048000 2.027622 -0.493723
v 1.048000 2.027622 -0.493723
v 1.048000 2.027622 0.493722
v -1.047686 1.095934 0.493722
v -1.047686 1.095934 -0.493723
v -1.048000 2.027622 -0.493723
v -1.048000 2.027622 0.493722
v 0.660000 -0.267441 -0.493722
v 0.660000 -0.267440 0.493722
v 0.660000 0.515338 0.493722
v 0.660000 0.515338 -0.493722
v 1.048000 1.095934 0.493722
v 1.048000 1.095934 -0.493723
v 1.048000 2.027622 0.493722
v 1.048000 2.027622 -0.493723
v -0.660000 0.515338 0.493722
v -0.660000 0.515338 -0.493722
v -0.660000 -0.267440 0.493722
v -0.660000 -0.267441 -0.493722
v -0.680573 -0.217440 0.498480
v -0.680573 -0.217441 -0.498480
v 0.719427 -0.217441 -0.498480
v 0.719427 -0.217440 0.498480
v -0.680573 -0.217440 0.498480
v 0.719427 -0.217440 0.498480
v 0.719427 -0.217441 -0.498480
v -0.680573 -0.217441 -0.498480
vt 0.267664 1.000000
vt 0.267664 0.000000
vt 0.000000 0.000000
vt 0.000000 1.000000
vt 0.739600 1.000000
vt 1.000000 1.000000
vt 1.000000 0.000000
vt 0.739600 0.000000
vt 0.835857 1.000000
vt 0.104453 1.000000
vt 0.104453 0.000000
vt 0.835857 0.000000
vt 0.835857 0.333333
vt 0.104453 0.333333
vt 0.104453 0.000000
vt 0.835857 0.000000
vt 0.895546 1.000000
vt 0.164142 1.000000
vt 0.164142 0.666667
vt 0.895546 0.666667
vt 0.164143 0.333333
vt 0.895547 0.333333
vt 0.164143 0.000000
vt 0.895547 0.000000
vt 0.835858 0.666667
vt 0.104453 0.666667
vt 0.835857 1.000000
vt 0.104453 1.000000
vt 1.000000 1.000000
vt 1.000000 0.000000
vt 0.000000 0.000000
vt 0.000000 1.000000
vt 0.000000 1.000000
vt 1.000000 1.000000
vt 1.000000 0.000000
vt 0.000000 0.000000
vn 0.0000 -1.0000 0.0000
vn 1.0000 0.0003 0.0000
vn -1.0000 -0.0000 0.0000
vn -0.8314 0.5556 0.0000
vn 0.8316 0.5553 0.0000
vn 1.0000 -0.0000 0.0000
vn 0.0000 1.0000 -0.0000
usemtl sochl2.m.onetex
s 1
f 55/55/17 56/56/17 57/57/17
f 57/57/17 58/58/17 55/55/17
f 59/59/17 60/60/17 61/61/17
f 61/61/17 62/62/17 59/59/17
f 63/63/17 64/64/17 65/65/17
f 65/65/17 66/66/17 63/63/17
f 67/67/18 68/68/18 69/69/18
f 69/69/18 70/70/18 67/67/18
f 71/71/19 72/72/19 73/73/19
f 73/73/19 74/74/19 71/71/19
f 75/75/20 76/76/20 74/74/20
f 74/74/20 73/73/20 75/75/20
f 77/77/19 78/78/19 76/76/19
f 76/76/19 75/75/19 77/77/19
f 68/68/21 67/67/21 79/79/21
f 79/79/21 80/80/21 68/68/21
f 81/81/22 82/82/22 80/80/22
f 80/80/22 79/79/22 81/81/22
usemtl face.m.onetex
f 83/83/17 84/84/17 85/85/17
f 85/85/17 86/86/17 83/83/17
f 87/87/23 88/88/23 89/89/23
f 89/89/23 90/90/23 87/87/23
