# Made in Blockbench 4.9.0
mtllib soundbarrier.mtl

o cube
v 0.0625 3.5 0.25
v 0.0625 3.5 -0.5
v 0.0625 0 0.25
v 0.0625 0 -0.5
v -0.0625 3.5 -0.5
v -0.0625 3.5 0.25
v -0.0625 0 -0.5
v -0.0625 0 0.25
vt 0.75 0.25
vt 0.875 0.25
vt 0.875 -3.25
vt 0.75 -3.25
vt 0 0.25
vt 0.75 0.25
vt 0.75 -3.25
vt 0 -3.25
vt 1.625 0.25
vt 1.75 0.25
vt 1.75 -3.25
vt 1.625 -3.25
vt 0.875 0.25
vt 1.625 0.25
vt 1.625 -3.25
vt 0.875 -3.25
vt 0.875 0.25
vt 0.75 0.25
vt 0.75 1
vt 0.875 1
vt 1 1
vt 0.875 1
vt 0.875 0.25
vt 1 0.25
vn 0 0 -1
vn 1 0 0
vn 0 0 1
vn -1 0 0
vn 0 1 0
vn 0 -1 0
usemtl m_48c9a869-12e9-0a22-fd97-c6d5fa387415
f 4/4/1 7/3/1 5/2/1 2/1/1
f 3/8/2 4/7/2 2/6/2 1/5/2
f 8/12/3 3/11/3 1/10/3 6/9/3
f 7/16/4 8/15/4 6/14/4 5/13/4
f 6/20/5 1/19/5 2/18/5 5/17/5
f 7/24/6 4/23/6 3/22/6 8/21/6
o cube
v 0.24816839109708977 3.9895370607107328 0.25
v 0.24816839109708977 3.9895370607107328 -0.5
v 0.05578206047640111 3.4609599615186597 0.25
v 0.05578206047640111 3.4609599615186597 -0.5
v 0.13070681349885116 4.032289578626441 -0.5
v 0.13070681349885116 4.032289578626441 0.25
v -0.061679517121837446 3.503712479434368 -0.5
v -0.061679517121837446 3.503712479434368 0.25
vt 0.125 0.875
vt 0.25 0.875
vt 0.25 0.3125
vt 0.125 0.3125
vt -0.625 0.875
vt 0.125 0.875
vt 0.125 0.3125
vt -0.625 0.3125
vt 1 0.875
vt 1.125 0.875
vt 1.125 0.3125
vt 1 0.3125
vt 0.25 0.875
vt 1 0.875
vt 1 0.3125
vt 0.25 0.3125
vt 0.25 0.875
vt 0.125 0.875
vt 0.125 1.625
vt 0.25 1.625
vt 0.375 1.625
vt 0.25 1.625
vt 0.25 0.875
vt 0.375 0.875
vn 0 0 -1
vn 0.9396926207859084 -0.34202014332566866 0
vn 0 0 1
vn -0.9396926207859084 0.34202014332566866 0
vn 0.34202014332566866 0.9396926207859084 0
vn -0.34202014332566866 -0.9396926207859084 0
usemtl m_48c9a869-12e9-0a22-fd97-c6d5fa387415
f 12/28/7 15/27/7 13/26/7 10/25/7
f 11/32/8 12/31/8 10/30/8 9/29/8
f 16/36/9 11/35/9 9/34/9 14/33/9
f 15/40/10 16/39/10 14/38/10 13/37/10
f 14/44/11 9/43/11 10/42/11 13/41/11
f 15/48/12 12/47/12 11/46/12 16/45/12