# Made in Blockbench 4.9.3
mtllib signwarningplaque.mtl

o cube
v 0.08125000000000004 3.0625 0.046875
v 0.08125000000000004 3.0625 -0.046875
v 0.08125000000000004 0 0.046875
v 0.08125000000000004 0 -0.046875
v -0.012500000000000011 3.0625 -0.046875
v -0.012500000000000011 3.0625 0.046875
v -0.012500000000000011 0 -0.046875
v -0.012500000000000011 0 0.046875
vt 0 1
vt 0.0859375 1
vt 0.0859375 0
vt 0 0
vt 0 1
vt 0.0859375 1
vt 0.0859375 0
vt 0 0
vt 0 1
vt 0.0859375 1
vt 0.0859375 0
vt 0 0
vt 0 1
vt 0.0859375 1
vt 0.0859375 0
vt 0 0
vt 0 1
vt 0.0859375 1
vt 0.0859375 0
vt 0 0
vt 0 1
vt 0.0859375 1
vt 0.0859375 0
vt 0 0
vn 0 0 -1
vn 1 0 0
vn 0 0 1
vn -1 0 0
vn 0 1 0
vn 0 -1 0
usemtl m_cef38ee9-fbaa-d7bc-c675-c56d5b9c6c5b
f 4/4/1 7/3/1 5/2/1 2/1/1
f 3/8/2 4/7/2 2/6/2 1/5/2
f 8/12/3 3/11/3 1/10/3 6/9/3
f 7/16/4 8/15/4 6/14/4 5/13/4
f 6/20/5 1/19/5 2/18/5 5/17/5
f 7/24/6 4/23/6 3/22/6 8/21/6
o plane
v 0.11250000000000009 2.5890625 0.428125
v 0.11250000000000009 2.5890625 -0.428125
v 0.11249999999999992 3.4421875 0.428125
v 0.11249999999999992 3.4421875 -0.428125
vt 0 1
vt 1 1
vt 1 0
vt 0 0
vn 1 1.9520404828574178e-16 0
usemtl m_abad2bb4-061a-3725-a273-2885f5b68c10
f 9/25/7 10/26/7 12/27/7 11/28/7
o cylinder
v 0.07812500000000004 3.0151650429449552 -2.7755575615628914e-17
v 0.10937500000000004 3.0151650429449552 -2.7755575615628914e-17
v 0.07812500000000011 3.0151650429449552 -0.4419417382415922
v 0.10937500000000011 3.0151650429449552 -0.4419417382415922
v 0.07812500000000011 3.4571067811865475 -5.551115123125783e-17
v 0.10937500000000011 3.4571067811865475 -5.551115123125783e-17
v 0.07812499999999997 3.0151650429449552 0.4419417382415922
v 0.10937499999999997 3.0151650429449552 0.4419417382415922
v 0.07812499999999997 2.5732233047033635 1.8041124150158794e-16
v 0.10937499999999997 2.5732233047033635 1.8041124150158794e-16
vt 0.5580582617584078 0.12055826175840778
vt 1 0.5625
vt 0.5580582617584078 0.5625
vt 0 0.9375
vt 1 0.9375
vt 1 1
vt 0 1
vt 5.551115123125783e-17 0.29289321881345254
vt 0.7071067811865475 1
vt 0 1
vt 0.125 0.5625
vt 0.5669417382415922 0.12055826175840789
vt 0.5669417382415922 0.5625
vt 0 0.9375
vt 1 0.9375
vt 1 1
vt 0 1
vt 0.7071067811865475 0.29289321881345254
vt 0 1
vt 5.551115123125783e-17 0.29289321881345254
vt 0.5669417382415922 1
vt 0.125 0.5580582617584078
vt 0.5669417382415922 0.5580582617584078
vt 0 0.9375
vt 1 0.9375
vt 1 1
vt 0 1
vt 0.7071067811865475 1
vt 0 0.29289321881345254
vt 0.7071067811865475 0.29289321881345254
vt 1 0.5580582617584078
vt 0.5580582617584078 1
vt 0.5580582617584078 0.5580582617584078
vt 0 0.9375
vt 1 0.9375
vt 1 1
vt 0 1
vt 0 1
vt 0.7071067811865475 0.29289321881345254
vt 0.7071067811865475 1
vn -1 1.570092458683775e-16 -1.5700924586837752e-16
vn 7.850462293418876e-17 0.7071067811865475 -0.7071067811865476
vn 1 -1.570092458683775e-16 1.5700924586837752e-16
vn -1 1.570092458683775e-16 -1.5700924586837752e-16
vn -7.850462293418875e-17 0.7071067811865476 0.7071067811865475
vn 1 -1.570092458683775e-16 1.5700924586837752e-16
vn -1 1.570092458683775e-16 -1.5700924586837752e-16
vn -7.850462293418876e-17 -0.7071067811865475 0.7071067811865476
vn 1 -1.570092458683775e-16 1.5700924586837752e-16
vn -1 1.570092458683775e-16 -1.5700924586837752e-16
vn 7.850462293418872e-17 -0.7071067811865478 -0.7071067811865472
vn 1 -1.570092458683775e-16 1.5700924586837752e-16
usemtl m_643454ef-9781-8593-10cb-462c74e4882c
f 17/29/8 15/30/8 13/31/8
f 15/32/9 17/33/9 18/34/9 16/35/9
f 16/36/10 18/37/10 14/38/10
f 19/39/11 17/40/11 13/41/11
f 17/42/12 19/43/12 20/44/12 18/45/12
f 18/46/13 20/47/13 14/48/13
f 21/49/14 19/50/14 13/51/14
f 19/52/15 21/53/15 22/54/15 20/55/15
f 20/56/16 22/57/16 14/58/16
f 15/59/17 21/60/17 13/61/17
f 21/62/18 15/63/18 16/64/18 22/65/18
f 22/66/19 16/67/19 14/68/19
o plane
v 0.11250000000000009 1.709375 0.428125
v 0.11250000000000009 1.709375 -0.428125
v 0.11249999999999992 2.5656250000000003 0.428125
v 0.11249999999999992 2.5656250000000003 -0.428125
vt 0 1
vt 1 1
vt 1 0
vt 0 0
vn 1 1.9449162475185225e-16 0
usemtl m_050da89c-318d-080b-e760-bbf866fb1a89
f 23/69/20 24/70/20 26/71/20 25/72/20
o cube
v 0.109375 2.5625 0.3125
v 0.109375 2.5625 -0.31875
v 0.109375 2.25 0.3125
v 0.109375 2.25 -0.31875
v 0.078125 2.5625 -0.31875
v 0.078125 2.5625 0.3125
v 0.078125 2.25 -0.31875
v 0.078125 2.25 0.3125
vt 0 1
vt 0.63125 1
vt 0.63125 0.6875
vt 0 0.6875
vt 0 1
vt 0.63125 1
vt 0.63125 0.6875
vt 0 0.6875
vt 0 1
vt 0.63125 1
vt 0.63125 0.6875
vt 0 0.6875
vt 0 1
vt 0.63125 1
vt 0.63125 0.6875
vt 0 0.6875
vt 0 1
vt 0.63125 1
vt 0.63125 0.6875
vt 0 0.6875
vt 0 1
vt 0.63125 1
vt 0.63125 0.6875
vt 0 0.6875
vn 0 0 -1
vn 1 0 0
vn 0 0 1
vn -1 0 0
vn 0 1 0
vn 0 -1 0
usemtl m_643454ef-9781-8593-10cb-462c74e4882c
f 30/76/21 33/75/21 31/74/21 28/73/21
f 29/80/22 30/79/22 28/78/22 27/77/22
f 34/84/23 29/83/23 27/82/23 32/81/23
f 33/88/24 34/87/24 32/86/24 31/85/24
f 32/92/25 27/91/25 28/90/25 31/89/25
f 33/96/26 30/95/26 29/94/26 34/93/26