# Made in Blockbench 4.9.3
mtllib signyieldrusty.mtl

o cube
v 0.08125000000000004 2.5 0.046875
v 0.08125000000000004 2.5 -0.046875
v 0.08125000000000004 0 0.046875
v 0.08125000000000004 0 -0.046875
v -0.012500000000000011 2.5 -0.046875
v -0.012500000000000011 2.5 0.046875
v -0.012500000000000011 0 -0.046875
v -0.012500000000000011 0 0.046875
vt 0 1
vt 0.0859375 1
vt 0.0859375 0
vt 0 0
vt 0 1
vt 0.0859375 1
vt 0.0859375 0
vt 0 0
vt 0 1
vt 0.0859375 1
vt 0.0859375 0
vt 0 0
vt 0 1
vt 0.0859375 1
vt 0.0859375 0
vt 0 0
vt 0 1
vt 0.0859375 1
vt 0.0859375 0
vt 0 0
vt 0 1
vt 0.0859375 1
vt 0.0859375 0
vt 0 0
vn 0 0 -1
vn 1 0 0
vn 0 0 1
vn -1 0 0
vn 0 1 0
vn 0 -1 0
usemtl m_a2303add-f17e-d40c-8fc6-a2990cb673b8
f 4/4/1 7/3/1 5/2/1 2/1/1
f 3/8/2 4/7/2 2/6/2 1/5/2
f 8/12/3 3/11/3 1/10/3 6/9/3
f 7/16/4 8/15/4 6/14/4 5/13/4
f 6/20/5 1/19/5 2/18/5 5/17/5
f 7/24/6 4/23/6 3/22/6 8/21/6
o plane
v 0.11250000000000009 2.021875 0.428125
v 0.11250000000000009 2.021875 -0.428125
v 0.11249999999999992 2.8781250000000003 0.428125
v 0.11249999999999992 2.8781250000000003 -0.428125
vt 0 1
vt 1 1
vt 1 0
vt 0 0
vn 1 1.9449162475185225e-16 0
usemtl m_abad2bb4-061a-3725-a273-2885f5b68c10
f 9/25/7 10/26/7 12/27/7 11/28/7
o cylinder
v 0.078125 2.515625 -6.938893903907219e-18
v 0.109375 2.515625 -1.3877787807814448e-17
v 0.0781250000000001 2.765625 0.43750000000000006
v 0.1093750000000001 2.765625 0.43750000000000006
v 0.078125 2.015625 -5.609430744080333e-17
v 0.109375 2.015625 -6.303320134471056e-17
v 0.0781249999999999 2.765625 -0.43749999999999994
v 0.1093749999999999 2.765625 -0.43749999999999994
vt 0.5128625 0.15625
vt 1 1
vt 0.5128625 0.71875
vt 0 0.9375
vt 0.974275 0.9375
vt 0.974275 1
vt 0 1
vt 1 0
vt 0.5128625 0.84375
vt 0.5128625 0.28125
vt 0 1
vt 0.4871375 0.15625
vt 0.4871375 0.71875
vt 0 0.9375
vt 0.974275 0.9375
vt 0.974275 1
vt 0 1
vt 0.4871375 0.84375
vt 0 0
vt 0.4871375 0.28125
vt 0.974275 1
vt 0 1
vt 0.4871375 0.71875
vt 0 0.9375
vt 0.974275 0.9375
vt 0.974275 1
vt 0 1
vt 0 0
vt 0.974275 0
vt 0.4871375 0.28125
vn -1 -4.930380657631324e-32 2.220446049250313e-16
vn 1.917974447925704e-16 -0.5038710255240864 0.8637789008984333
vn 1 4.930380657631324e-32 -2.220446049250313e-16
vn -1 -4.930380657631324e-32 2.220446049250313e-16
vn -1.9179744479257045e-16 -0.503871025524086 -0.8637789008984336
vn 1 4.930380657631324e-32 -2.220446049250313e-16
vn -1 -4.930380657631324e-32 2.220446049250313e-16
vn 4.930380657631324e-32 1 2.220446049250313e-16
vn 1 4.930380657631324e-32 -2.220446049250313e-16
usemtl m_643454ef-9781-8593-10cb-462c74e4882c
f 17/29/8 15/30/8 13/31/8
f 15/32/9 17/33/9 18/34/9 16/35/9
f 16/36/10 18/37/10 14/38/10
f 19/39/11 17/40/11 13/41/11
f 17/42/12 19/43/12 20/44/12 18/45/12
f 18/46/13 20/47/13 14/48/13
f 15/49/14 19/50/14 13/51/14
f 19/52/15 15/53/15 16/54/15 20/55/15
f 20/56/16 16/57/16 14/58/16